<svg width="32" height="32" viewBox="0 0 32 32" fill="none" xmlns="http://www.w3.org/2000/svg">
<path d="M26.6667 16V24C26.6667 25.8856 26.6667 26.8284 26.0809 27.4142C25.4951 28 24.5523 28 22.6667 28H8.66667C8.35712 28 8.20235 28 8.07187 27.9886C6.62153 27.8617 5.47164 26.7118 5.34475 25.2615C5.33333 25.131 5.33333 24.9762 5.33333 24.6667V24.6667C5.33333 24.3571 5.33333 24.2024 5.34475 24.0719C5.47164 22.6215 6.62153 21.4716 8.07187 21.3447C8.20235 21.3333 8.35712 21.3333 8.66667 21.3333H22.6667C24.5523 21.3333 25.4951 21.3333 26.0809 20.7475C26.6667 20.1618 26.6667 19.219 26.6667 17.3333V8C26.6667 6.11438 26.6667 5.17157 26.0809 4.58579C25.4951 4 24.5523 4 22.6667 4H9.33334C7.44772 4 6.50491 4 5.91912 4.58579C5.33333 5.17157 5.33333 6.11438 5.33333 8V24.6667" stroke="#F99D21"/>
<path d="M12 13.3333L13.9596 15.2929C14.3501 15.6834 14.9832 15.6834 15.3738 15.2929L20 10.6667" stroke="#F99D21" stroke-linecap="round"/>
</svg>
