<svg width="43" height="43" viewBox="0 0 43 43" fill="none" xmlns="http://www.w3.org/2000/svg">
<path d="M7.97413 24.9189L20.8153 36.9818C21.1398 37.2866 21.302 37.439 21.5 37.439C21.698 37.439 21.8602 37.2866 22.1847 36.9818L35.0259 24.9189C35.2265 24.7305 35.3267 24.6363 35.4114 24.5524C38.5805 21.4134 38.9722 16.4267 36.3321 12.8314C36.2616 12.7354 36.1773 12.6267 36.0086 12.4093L36.0086 12.4092L35.4543 11.6948C31.928 7.14979 24.8498 7.91203 22.372 13.1036C22.0219 13.837 20.9781 13.837 20.6281 13.1036C18.1503 7.91203 11.072 7.1498 7.54569 11.6948L6.99143 12.4092L6.99132 12.4093C6.8227 12.6267 6.73837 12.7354 6.66787 12.8314C4.02782 16.4267 4.41955 21.4134 7.58863 24.5524C7.67327 24.6363 7.77356 24.7305 7.97413 24.9189Z" stroke="#222222"/>
</svg>
