<svg width="25" height="26" viewBox="0 0 25 26" fill="none" xmlns="http://www.w3.org/2000/svg">
<path d="M12.5 25C12.5 25 8.9658 24.4783 6.72062 24.4783V24.4783C3.69418 24.4783 1 22.278 1 19.2516V7.80839C1 6.19833 1.91688 4.62413 3.51334 4.41524V4.41524M12.5 25C12.5 25 15.9167 24.4783 18.1619 24.4783C18.1903 24.4783 18.219 24.4783 18.2478 24.4785C21.2951 24.496 24 22.2689 24 19.2215V7.57902C24 6.09853 23.1797 4.66051 21.7118 4.46843V4.46843M12.5 25V21.8653M12.5 21.8653C12.5 21.8653 9.50448 21.3478 7.70833 21.3478V21.3478C5.46882 21.3478 3.41004 19.7565 3.42512 17.517L3.51334 4.41524M12.5 21.8653C12.5 21.8653 15.3391 21.3478 17.1353 21.3478V21.3478C19.4631 21.3478 21.6176 19.7356 21.632 17.4078L21.7118 4.46843M12.5 21.8653V1.52174M3.51334 4.41524V4.41524C3.51334 2.7361 4.70522 1.27473 6.37526 1.10016C6.94057 1.04107 7.51156 1 8.00667 1C9.77138 1 12.5 1.52174 12.5 1.52174M21.7118 4.46843V4.46843C21.7118 2.76024 20.4951 1.2764 18.7958 1.10199C18.2105 1.04192 17.6185 1 17.1059 1C15.2975 1 12.5 1.52174 12.5 1.52174" stroke="#F99D21" stroke-linecap="round" stroke-linejoin="round"/>
</svg>
